<svg width="1163" height="4226" viewBox="0 0 1163 4226" fill="none" xmlns="http://www.w3.org/2000/svg">
<path d="M85.5001 4.50586C122.5 127.499 41.5001 133.512 143 323.006C244.5 512.5 -100.5 500.512 85.5001 724.006C271.5 947.5 -30.2218 1005.58 22.0001 1176.01C75.6369 1351.05 85.5001 1512.5 340.5 1520.01C595.5 1527.51 649 1558.51 735 1730.01C821 1901.5 1047 1764 1123.5 1921.51C1200 2079.01 1067.5 2006 1047 2278.01C1026.5 2550.01 785.5 2467.01 678 2723.51C570.5 2980 269.5 2767 340.5 3096.01C411.5 3425.01 -31 3470.5 169 3639.01C369 3807.51 405 3794.5 340.5 3982.01C276 4169.51 678 4106 641 4221.01" stroke="#A253EC" stroke-width="30"/>
</svg>
